<svg role="img" aria-label="Logo" width="36" height="36" viewBox="0 0 36 36" fill="none" xmlns="http://www.w3.org/2000/svg">
<path d="M28.3515 15C28.9441 16.0283 29.919 16.7808 31.0639 17.0935C32.2089 17.4063 33.431 17.2538 34.464 16.6695C34.5855 17.755 34.3654 18.8513 33.8344 19.8058C33.3034 20.7603 32.4879 21.5254 31.5015 21.9945L31.5 31.5H22.5V28.5C22.5011 27.3286 22.0455 26.203 21.2298 25.3623C20.4142 24.5215 19.3029 24.032 18.1321 23.9976C16.9612 23.9632 15.8231 24.3868 14.9595 25.1782C14.096 25.9696 13.5751 27.0666 13.5075 28.236L13.5 28.5V31.5H4.5V21.996C3.51173 21.5275 2.69442 20.7621 2.16223 19.8067C1.63004 18.8512 1.40953 17.7534 1.5315 16.6665C2.56446 17.252 3.78702 17.4054 4.93261 17.0933C6.07821 16.7811 7.05392 16.0286 7.647 15H28.3515ZM25.554 4.5C25.6613 5.24415 25.9272 5.95657 26.3336 6.58907C26.7401 7.22157 27.2777 7.75939 27.91 8.16615C28.5423 8.5729 29.2546 8.83909 29.9987 8.94672C30.7428 9.05435 31.5013 9.00091 32.223 8.79C32.0946 10.0329 31.5271 11.1892 30.6225 12.0511C29.7179 12.9131 28.5356 13.4241 27.288 13.4925L27 13.5H9C7.70096 13.5002 6.44797 13.0188 5.48326 12.1488C4.51855 11.2789 3.91062 10.0821 3.777 8.79C4.49866 9.00091 5.2572 9.05435 6.0013 8.94672C6.7454 8.83909 7.4577 8.5729 8.09002 8.16615C8.72233 7.75939 9.25991 7.22157 9.66637 6.58907C10.0728 5.95657 10.3387 5.24415 10.446 4.5H25.554Z" fill="#686E84"/>
</svg>
